# xmcd
#
# Track frame offsets:
#	183
#	14763
#	30085
#	47595
#	60873
#	75365
#	100928
#	113658
#	139995
#	154348
#	169733
#	186005
#	205055
#	224180
# Disc length: 3374 seconds
# Revision: 3
# Processed by: cddbd v1.5.1PL0 Copyright (c) Steve Scherf et al.
#
# Submitted via: libkcddb 0.10
#
DISCID=b60d2c0e
DTITLE=Billy Ocean - The magic collection
DYEAR=1900
DGENRE=Unknown
TTITLE0=Love Really Hurts Without You
TTITLE1=Emotions In Motion
TTITLE2=On The Run (Hold On Brother)
TTITLE3=Whose Little Girl Are You?
TTITLE4=Black As He's Painted
TTITLE5=On The Run (Hold On Brother)
TTITLE6=What's Gonna Happen To Our Love
TTITLE7=Wild Beautiful Woman
TTITLE8=Light Up The World With Sunshine
TTITLE9=Can You Feel It
TTITLE10=Eye Of The Storm
TTITLE11=Hungry For Love
TTITLE12=Super Woman, Super Love
TTITLE13=On The Run
EXTD=
EXTT0=
EXTT1=
EXTT2=
EXTT3=
EXTT4=
EXTT5=
EXTT6=
EXTT7=
EXTT8=
EXTT9=
EXTT10=
EXTT11=
EXTT12=
EXTT13=
PLAYORDER=
